# xmcd
#
# Track frame offsets:
#	150
#	26957
#	42834
#	58270
#	76749
#	92173
#	106504
#	126963
#	144948
#	164935
#	179107
#
# Disc length: 2701 seconds
# Revision: 0
# Processed by: cddbd v1.5.2PL0 Copyright (c) Steve Scherf et al.
# Submitted via: dBpowerAMP V12.0
#
DISCID=990a8b0b
DTITLE=Backstreet Crawl - Ramblin' Woman
DYEAR=2013
DGENRE=Blues
TTITLE0=Pink Lemon Salmon Tie
TTITLE1=A Bad Hairday
TTITLE2=Bastards
TTITLE3=Rambling Woman
TTITLE4=Lose Cannon
TTITLE5=Getting High
TTITLE6=Hoodoo Man
TTITLE7=Bottled Medicine
TTITLE8=Watch Out
TTITLE9=Low Down Dirty Work
TTITLE10=Let's Rock 'N' Roll
EXTD=
EXTT0=
EXTT1=
EXTT2=
EXTT3=
EXTT4=
EXTT5=
EXTT6=
EXTT7=
EXTT8=
EXTT9=
EXTT10=
PLAYORDER=
